<?xml version="1.0" standalone="no"?>
<!DOCTYPE svg PUBLIC "-//W3C//DTD SVG 20010904//EN"
 "http://www.w3.org/TR/2001/REC-SVG-20010904/DTD/svg10.dtd">
<svg version="1.0" xmlns="http://www.w3.org/2000/svg"
 width="512.000000pt" height="512.000000pt" viewBox="0 0 512.000000 512.000000"
 preserveAspectRatio="xMidYMid meet">
<metadata>
Created by potrace 1.11, written by Peter Selinger 2001-2013
</metadata>
<g transform="translate(0.000000,512.000000) scale(0.100000,-0.100000)"
fill="#000000" stroke="none">
<path d="M390 5104 c-30 -8 -80 -26 -110 -41 -72 -35 -188 -151 -223 -223 -61
-126 -57 23 -57 -2280 0 -2303 -4 -2154 57 -2280 35 -72 151 -188 223 -223
126 -61 -23 -57 2280 -57 2303 0 2154 -4 2280 57 72 35 188 151 223 223 61
126 57 -23 57 2280 0 2303 4 2154 -57 2280 -35 72 -151 188 -223 223 -127 61
23 57 -2285 56 -1816 0 -2118 -2 -2165 -15z m373 -1639 c43 -7 88 -20 100 -28
13 -9 109 -184 227 -412 l205 -396 5 408 5 408 30 15 c23 12 68 15 200 15 187
0 241 -10 250 -48 3 -12 4 -404 3 -872 l-3 -850 -40 -20 c-35 -17 -60 -19
-210 -19 -99 0 -187 5 -211 12 l-41 12 -213 398 c-116 218 -216 401 -221 407
-5 5 -9 -156 -9 -398 l0 -407 -28 -13 c-18 -8 -88 -12 -212 -12 -161 0 -190 2
-213 18 l-27 17 0 874 c0 935 -3 889 50 899 56 10 280 5 353 -8z m2412 -30
c17 -35 20 -60 20 -190 0 -130 -3 -155 -20 -190 l-20 -40 -162 -3 -163 -2 0
-661 0 -660 -37 -17 c-31 -13 -71 -17 -208 -17 -93 0 -187 4 -207 8 -73 15
-68 -34 -68 693 l0 654 -165 0 -164 0 -16 29 c-48 93 -41 374 11 426 14 13 82
15 597 13 l582 -3 20 -40z m559 35 c141 -17 125 64 128 -641 l3 -611 32 -28
c57 -51 155 -64 228 -31 75 34 69 -14 75 670 l5 616 40 14 c55 18 301 26 404
12 136 -18 123 59 119 -691 -4 -571 -6 -652 -22 -704 -56 -195 -206 -340 -420
-405 -129 -40 -364 -45 -508 -12 -244 56 -418 207 -496 429 -14 41 -17 128
-19 699 -4 753 -19 668 115 682 112 12 215 12 316 1z"/>
</g>
</svg>
